<svg width="256" height="256" viewBox="0 0 256 256" fill="none" xmlns="http://www.w3.org/2000/svg">
<path d="M225.24 150.73C226.246 151.943 227.004 153.343 227.469 154.849C227.934 156.355 228.098 157.938 227.951 159.507C227.804 161.077 227.35 162.602 226.614 163.996C225.877 165.389 224.874 166.624 223.66 167.63C205.49 182.7 189.06 188 174.15 188C154.39 188 137.29 178.71 122.27 170.56C97.21 156.94 77.41 146.19 47.66 170.86C46.4466 171.866 45.0469 172.623 43.5409 173.088C42.0349 173.553 40.4521 173.717 38.8828 173.57C37.3135 173.423 35.7884 172.969 34.3947 172.233C33.001 171.497 31.7659 170.493 30.76 169.28C29.7541 168.067 28.997 166.667 28.532 165.161C28.067 163.655 27.9032 162.072 28.0499 160.503C28.3462 157.333 29.8894 154.412 32.34 152.38C74.59 117.38 107.34 135.15 133.73 149.46C158.79 163.07 178.59 173.83 208.34 149.15C209.553 148.144 210.953 147.386 212.459 146.921C213.965 146.456 215.548 146.292 217.117 146.439C218.687 146.586 220.212 147.04 221.606 147.776C222.999 148.513 224.234 149.516 225.24 150.73ZM47.66 106.85C77.41 82.17 97.21 92.93 122.27 106.54C137.27 114.7 154.39 123.99 174.15 123.99C189.06 123.99 205.49 118.69 223.66 103.62C226.111 101.588 227.654 98.6666 227.95 95.4972C228.246 92.3279 227.272 89.1706 225.24 86.72C223.208 84.2694 220.287 82.7262 217.117 82.4299C213.948 82.1336 210.791 83.1084 208.34 85.14C178.59 109.81 158.79 99.06 133.73 85.44C107.38 71.14 74.59 53.33 32.34 88.37C29.8894 90.4016 28.3462 93.3234 28.0499 96.4928C27.7536 99.6621 28.7284 102.819 30.76 105.27C32.7916 107.721 35.7134 109.264 38.8828 109.56C42.0521 109.856 45.2094 108.882 47.66 106.85Z" fill="white"/>
<path d="M51 24V232C51 235.183 49.7357 238.235 47.4853 240.485C45.2348 242.736 42.1826 244 39 244C35.8174 244 32.7652 242.736 30.5147 240.485C28.2643 238.235 27 235.183 27 232V24C27 20.8174 28.2643 17.7652 30.5147 15.5147C32.7652 13.2643 35.8174 12 39 12C42.1826 12 45.2348 13.2643 47.4853 15.5147C49.7357 17.7652 51 20.8174 51 24Z" fill="white"/>
</svg>
