<svg width="256" height="256" viewBox="0 0 256 256" fill="none" xmlns="http://www.w3.org/2000/svg">
<g clip-path="url(#clip0_405_3)">
<path d="M51 24V232C51 235.183 49.7357 238.235 47.4853 240.485C45.2348 242.736 42.1826 244 39 244C35.8174 244 32.7652 242.736 30.5147 240.485C28.2643 238.235 27 235.183 27 232V24C27 20.8174 28.2643 17.7652 30.5147 15.5147C32.7652 13.2643 35.8174 12 39 12C42.1826 12 45.2348 13.2643 47.4853 15.5147C49.7357 17.7652 51 20.8174 51 24Z" fill="black"/>
<path d="M170 106.645H42C39.171 106.645 36.4579 105.522 34.4575 103.521C32.4571 101.521 31.3333 98.8076 31.3333 95.9787C31.3333 93.1497 32.4571 90.4366 34.4575 88.4362C36.4579 86.4358 39.171 85.312 42 85.312H170C172.829 85.312 175.542 86.4358 177.542 88.4362C179.543 90.4366 180.667 93.1497 180.667 95.9787C180.667 98.8076 179.543 101.521 177.542 103.521C175.542 105.522 172.829 106.645 170 106.645ZM170 170.645H42C39.171 170.645 36.4579 169.522 34.4575 167.521C32.4571 165.521 31.3333 162.808 31.3333 159.979C31.3333 157.15 32.4571 154.437 34.4575 152.436C36.4579 150.436 39.171 149.312 42 149.312H170C172.829 149.312 175.542 150.436 177.542 152.436C179.543 154.437 180.667 157.15 180.667 159.979C180.667 162.808 179.543 165.521 177.542 167.521C175.542 169.522 172.829 170.645 170 170.645Z" fill="black"/>
</g>
<defs>
<clipPath id="clip0_405_3">
<rect width="256" height="256" fill="white"/>
</clipPath>
</defs>
</svg>
